<?xml version="1.0" encoding="UTF-8"?>
<!-- Generated by jsxcad -->
<!DOCTYPE svg PUBLIC "-//W3C//DTD SVG 1.1 Tiny//EN" "http://www.w3.org/Graphics/SVG/1.1/DTD/svg11-tiny.dtd">
<svg baseProfile="tiny" height="100.00000000000006mm" width="100.00000000000006mm" viewBox="0 0 100.00000000000006 100.00000000000006" version="1.1" stroke="black" stroke-width=".1" fill="none" xmlns="http://www.w3.org/2000/svg">
<path fill="#000000" stroke="#000000" d="M76 64 L64 64 L24 64 L24 36 L36 36 L76 36 z"/>
<path fill="#000000" stroke="#000000" d="M76.00000000000003 64 L76.00000000000003 64 L76.00000000000003 36 L76.00000000000003 36 z"/>
<path fill="#000000" stroke="#000000" d="M24 64.00000000000003 L24 64.00000000000003 L64 64.00000000000003 L76 64.00000000000003 L76 64.00000000000003 z"/>
<path fill="#000000" stroke="#000000" d="M24 36.00000000000003 L24 36.00000000000003 L76 36.00000000000003 L76 36.00000000000003 L36 36.00000000000003 z"/>
<path fill="#000000" stroke="#000000" d="M24.00000000000003 64 L24.00000000000003 64 L24.00000000000003 36 L24.00000000000003 36 z"/>
<path fill="#000000" stroke="#000000" d="M24 36 L24 64 L76 64 L76 36 z"/>
<path fill="#008000" stroke="#008000" d="M0 100 L0 0 L100 0 L100 100 z"/>
<path fill="#008000" stroke="#008000" d="M0 2.842170943040401e-14 L0 2.842170943040401e-14 L100 2.842170943040401e-14 L100 2.842170943040401e-14 z"/>
<path fill="#008000" stroke="#008000" d="M100.00000000000003 100 L100.00000000000003 100 L100.00000000000003 0 L100.00000000000003 0 z"/>
<path fill="#008000" stroke="#008000" d="M0 100.00000000000003 L0 100.00000000000003 L100 100.00000000000003 L100 100.00000000000003 z"/>
<path fill="#008000" stroke="#008000" d="M2.842170943040401e-14 100 L2.842170943040401e-14 100 L2.842170943040401e-14 0 L2.842170943040401e-14 0 z"/>
<path fill="#008000" stroke="#008000" d="M0 0 L0 100 L100 100 L100 0 z"/>
</svg>